<?xml version="1.0" encoding="utf-8"?>
<!-- Generator: Adobe Illustrator 22.1.0, SVG Export Plug-In . SVG Version: 6.00 Build 0)  -->
<svg version="1.1" id="Layer_1" xmlns="http://www.w3.org/2000/svg" xmlns:xlink="http://www.w3.org/1999/xlink" x="0px" y="0px"
	 viewBox="0 0 600 600" style="enable-background:new 0 0 600 600;" xml:space="preserve">
<style type="text/css">
	.st0{fill:#E1251B;}
	.st1{fill:#FFC600;}
	.st2{fill:#FFFFFF;}
</style>
<g>
	<path class="st0" d="M477.8,261.1c-1.8-6.6-4.9-12.6-9.2-17.9c-4.3-5.3-9.6-9.5-15.9-12.8c-6.5-3.4-13.5-5.4-21.1-6
		c-15.5-1.2-29.5,2.9-42.1,12.4c-5.9,4.5-10.9,9.8-14.7,16c-4,6.3-6.7,13.1-7.8,20.4c-0.6,3.6-0.8,7.2-0.6,10.7l34.7-4.2
		c0-1.1,0-2.2,0.2-3.3c1-5.9,4-10.7,8.9-14.4c5.1-3.8,10.6-5.4,16.8-5c6.2,0.5,11.1,3,14.7,7.5c3.7,4.5,5.1,9.7,4.2,15.5
		c-1,5.9-4,10.7-9,14.4c-3.7,2.8-7.6,4.4-11.9,4.9c-0.7,11.1-2.9,21.8-6.5,31.9c13.8,0.2,26.5-3.9,38-12.6c5.9-4.5,10.9-9.8,14.8-16
		c4-6.3,6.6-13.1,7.8-20.4C480,275,479.7,267.9,477.8,261.1z"/>
	<path class="st1" d="M377.8,221.3c-15.2-8.9-33.4-13.1-52.3-10.8c-45.8,5.6-78.4,47.2-72.8,93s47.2,78.4,93,72.8s78.4-47.2,72.8-93
		l-82.9,10.1L377.8,221.3z"/>
	<path class="st0" d="M277.9,298.8c-1.8-6.6-4.9-12.6-9.2-17.9s-9.6-9.5-15.9-12.8c-6.5-3.4-13.5-5.4-21.1-6
		c-15.5-1.2-29.5,2.9-42.1,12.4c-5.9,4.5-10.9,9.8-14.7,16c-4,6.3-6.7,13.1-7.8,20.4c-0.6,3.6-0.8,7.2-0.6,10.7l34.7-4.2
		c0-1.1,0-2.2,0.2-3.3c1-5.9,4-10.7,8.9-14.4c5.1-3.8,10.6-5.4,16.8-5c6.2,0.5,11.1,3,14.7,7.5c3.7,4.5,5.1,9.7,4.2,15.5
		c-1,5.9-4,10.7-9,14.4c-3.7,2.8-7.6,4.4-11.9,4.9c-0.7,11.1-2.9,21.8-6.5,31.9c13.8,0.2,26.5-3.9,38-12.6c5.9-4.5,10.9-9.8,14.8-16
		c4-6.3,6.6-13.1,7.8-20.4C280.1,312.6,279.8,305.6,277.9,298.8z"/>
	<path class="st1" d="M178,259c-15.2-8.9-33.4-13.1-52.3-10.8c-45.8,5.6-78.4,47.2-72.8,93s47.2,78.4,93,72.8s78.4-47.2,72.8-93
		L135.8,331L178,259z"/>
	<g>
		<path class="st2" d="M156.6,384.7c9.6-2.7,19.3-4.1,29.3-4.2c8.7-0.1,15.7,1.2,21.1,3.8c6.7,3.3,10.6,8.6,11.6,15.9
			c1.9,13.3-1.8,23.1-11.2,29.6c-3.4,2.3-7.1,4-11.3,5c-3.5,0.8-6.2,1-8.3,0.6l2.5,18.6l-24.8,4.3L156.6,384.7z M195.7,406.5
			c-0.3-2.5-1.1-4.5-2.4-6.1c-1.1-1.3-2.6-2.2-4.4-2.8c-2.1-0.7-4.1-1-6-0.9l2.6,20.5c1.9,0,3.7-0.5,5.5-1.3
			C194.5,414,196.1,410.9,195.7,406.5z"/>
		<path class="st2" d="M228.9,446.4l-12.2-72.1l26.4-3.7l9.5,72.1L228.9,446.4z"/>
		<path class="st2" d="M325.9,431.4l-65,9.5l18.8-46.6l-26.8,5.8l-6.3-26l68.5-13.1l-14.8,47.1l21.6-4.2L325.9,431.4z"/>
		<path class="st2" d="M400,419.7l-65,9.5l18.8-46.6l-26.8,5.9l-6.3-26l68.5-13.1l-14.8,47.1l21.6-4.2L400,419.7z"/>
		<path class="st2" d="M429.4,418.6l-26.8-4.4l25.7-79.3l53.6,63.3l-17.2,15.5l-8-10.7l-24.9,3.3L429.4,418.6z M445.5,387.8
			l-7.8-10.5l-2.3,11.6L445.5,387.8z"/>
	</g>
	<g>
		<path class="st0" d="M161.6,387.9c9.6-2.7,19.3-4.1,29.3-4.2c8.7-0.1,15.7,1.2,21.1,3.8c6.7,3.3,10.6,8.6,11.6,15.9
			c1.9,13.3-1.8,23.1-11.2,29.6c-3.4,2.3-7.1,4-11.3,5c-3.5,0.8-6.2,1-8.3,0.6l2.5,18.6l-24.8,4.3L161.6,387.9z M200.8,409.6
			c-0.3-2.5-1.1-4.5-2.4-6.1c-1.1-1.3-2.6-2.2-4.4-2.8c-2.1-0.7-4.1-1-6-0.9l2.6,20.5c1.9,0,3.7-0.5,5.5-1.3
			C199.6,417.2,201.1,414.1,200.8,409.6z"/>
		<path class="st0" d="M233.9,449.6l-12.2-72.1l26.4-3.7l9.5,72.1L233.9,449.6z"/>
		<path class="st0" d="M331,434.6l-65,9.5l18.8-46.6l-26.8,5.8l-6.3-26l68.5-13.1l-14.8,47.1l21.6-4.2L331,434.6z"/>
		<path class="st0" d="M405,422.8l-65,9.5l18.8-46.6l-26.8,5.9l-6.3-26l68.5-13.1l-14.8,47.1l21.6-4.2L405,422.8z"/>
		<path class="st0" d="M434.4,421.7l-26.8-4.4l25.7-79.3l53.6,63.3l-17.2,15.5l-8-10.7l-24.9,3.3L434.4,421.7z M450.5,391l-7.8-10.5
			l-2.3,11.6L450.5,391z"/>
	</g>
	<g>
		<path class="st1" d="M233.4,214.8c0.7-7,6.9-12,13.9-11.3c2.9,0.3,5.4,1.5,7.4,3.3l5.3-52.3c-32.2-3.3-62.3,9.2-82.9,31.1l19.3,18
			c0.7-7,6.9-12,13.9-11.3c7,0.7,12,6.9,11.3,13.9c-0.6,5.8-5,10.3-10.5,11.2l38.8,36.3l2.7-26.8c-2.3,1.4-5,2.1-7.9,1.8
			C237.8,228,232.7,221.7,233.4,214.8z M224.1,181.4c0.7-7,6.9-12,13.9-11.3c7,0.7,12,6.9,11.3,13.9s-6.9,12-13.9,11.3
			C228.4,194.6,223.4,188.4,224.1,181.4z"/>
		<path class="st0" d="M221.6,206.2c0.7-7-4.4-13.2-11.3-13.9c-7-0.7-13.2,4.4-13.9,11.3l14.7,13.8C216.6,216.5,221,212,221.6,206.2
			z"/>
		<path class="st0" d="M247.3,203.5c-7-0.7-13.2,4.4-13.9,11.3c-0.7,7,4.4,13.2,11.3,13.9c2.9,0.3,5.6-0.4,7.9-1.8l2-20
			C252.7,205,250.2,203.8,247.3,203.5z"/>
		<circle class="st0" cx="236.7" cy="182.7" r="12.7"/>
	</g>
	<g>
		<path class="st1" d="M490.9,334.7c6.2,3.3,8.5,11,5.2,17.1c-1.4,2.5-3.5,4.4-5.9,5.5l46.3,24.8c15.3-28.5,15.3-61.1,2.8-88.5
			l-24,11c6.2,3.3,8.5,11,5.2,17.1c-3.3,6.2-11,8.5-17.1,5.2c-5.1-2.8-7.6-8.5-6.4-13.9l-48.3,22.1l23.8,12.7c-0.4-2.6,0-5.4,1.3-8
			C477.1,333.7,484.7,331.4,490.9,334.7z M525.3,338.8c6.2,3.3,8.5,11,5.2,17.1c-3.3,6.2-11,8.5-17.1,5.2s-8.5-11-5.2-17.1
			C511.4,337.8,519.1,335.5,525.3,338.8z"/>
		<path class="st0" d="M503.4,327c6.2,3.3,13.8,1,17.1-5.2c3.3-6.2,1-13.8-5.2-17.1l-18.3,8.4C495.8,318.5,498.2,324.3,503.4,327z"
			/>
		<path class="st0" d="M496.1,351.9c3.3-6.2,1-13.8-5.2-17.1c-6.2-3.3-13.8-1-17.1,5.2c-1.4,2.5-1.8,5.3-1.3,8l17.8,9.5
			C492.6,356.3,494.7,354.4,496.1,351.9z"/>
		<circle class="st0" cx="519.3" cy="350" r="12.7"/>
	</g>
</g>
</svg>
